<?xml version="1.0" standalone="no"?>
<!DOCTYPE svg PUBLIC "-//W3C//DTD SVG 20010904//EN"
 "http://www.w3.org/TR/2001/REC-SVG-20010904/DTD/svg10.dtd">
<svg version="1.0" xmlns="http://www.w3.org/2000/svg"
 width="183.000000pt" height="275.000000pt" viewBox="0 0 183.000000 275.000000"
 preserveAspectRatio="xMidYMid meet">
<metadata>
Created by potrace 1.15, written by Peter Selinger 2001-2017
</metadata>
<g transform="translate(0.000000,275.000000) scale(0.100000,-0.100000)"
fill="#000000" stroke="none">
<path d="M0 1375 l0 -1375 915 0 915 0 0 1375 0 1375 -915 0 -915 0 0 -1375z
m710 626 c0 -4 -17 -15 -37 -24 l-38 -16 45 6 c57 7 45 -7 -28 -33 -88 -31
-87 -26 -90 -270 -3 -204 -4 -214 -23 -214 -18 0 -19 7 -17 103 1 96 2 98 8
37 5 -48 7 -28 7 75 -1 104 -2 122 -7 70 -6 -67 -6 -64 -10 50 -3 66 -3 126
-1 133 4 16 47 39 126 68 33 12 61 22 63 23 1 1 2 -3 2 -8z m498 -16 c79 -24
106 -52 110 -115 2 -29 0 -66 -5 -84 -7 -31 -7 -31 -14 14 -5 39 -6 36 -7 -25
0 -50 2 -63 8 -45 5 15 8 -31 8 -120 -1 -152 -9 -200 -19 -115 l-6 50 -4 -50
c-2 -27 -6 53 -9 179 l-5 229 -26 19 c-14 10 -43 25 -65 33 -21 8 -31 14 -22
15 10 0 41 -9 69 -19 32 -13 46 -15 40 -7 -6 8 -37 21 -69 31 -80 24 -79 23
-56 24 11 1 43 -6 72 -14z m-195 -210 c9 -49 19 -106 22 -125 3 -19 11 -61 17
-93 11 -57 5 -85 -12 -58 -4 8 -13 41 -20 73 -11 58 -12 59 -43 56 l-32 -3 -3
-67 c-3 -61 -5 -68 -23 -68 -15 0 -19 5 -15 18 3 10 10 51 15 92 10 79 48 256
57 272 11 18 21 -7 37 -97z m104 64 c7 -19 25 -81 40 -138 l28 -104 5 133 c4
94 9 135 18 138 9 3 12 -41 12 -197 0 -165 -2 -199 -14 -195 -12 5 -66 174
-81 257 -4 20 -12 40 -17 44 -7 4 -9 -41 -6 -136 3 -103 1 -144 -8 -152 -18
-15 -22 34 -19 221 1 91 3 167 4 168 4 14 28 -11 38 -39z m-395 -103 c20 -70
38 -130 41 -132 2 -2 22 55 43 128 22 72 45 133 51 135 8 3 12 -50 12 -192 0
-151 -2 -196 -12 -192 -8 2 -14 39 -17 113 l-5 109 -19 -60 c-11 -33 -24 -79
-31 -103 -6 -24 -15 -43 -20 -43 -5 0 -26 64 -47 143 l-37 143 -2 -120 c-2
-66 -3 -133 -3 -150 -1 -19 -7 -31 -17 -33 -14 -2 -15 17 -12 170 2 95 6 183
9 196 10 47 30 13 66 -112z m-345 -235 c69 -67 95 -73 316 -67 100 2 150 1
110 -2 -47 -5 -78 -13 -89 -23 -15 -16 -14 -17 15 -24 17 -4 64 -1 104 7 l72
13 -65 6 -65 6 73 1 c46 1 71 6 67 12 -4 7 55 9 172 8 l178 -2 -125 -5 c-84
-4 -132 -11 -147 -20 -25 -17 -37 -71 -16 -71 7 0 14 5 14 10 1 6 2 15 3 22 2
21 25 20 23 -1 -1 -12 -6 -21 -12 -22 -5 -1 1 -4 14 -8 31 -8 128 2 141 15 15
15 -23 31 -100 42 -61 9 -57 9 70 11 146 1 219 9 199 21 -7 5 10 14 42 24 36
10 66 27 89 51 18 19 38 35 44 35 5 0 -5 -15 -24 -32 -69 -68 -91 -179 -50
-264 28 -56 71 -77 142 -68 29 4 65 13 81 21 29 15 39 0 10 -16 -27 -14 -128
-24 -168 -17 -19 4 -52 22 -72 41 -21 19 -52 40 -70 45 -17 6 -120 13 -230 15
-228 4 -212 3 -193 15 11 7 -1 9 -40 8 -53 -1 -53 -1 -15 -7 35 -6 31 -7 -35
-12 -41 -2 -146 -5 -232 -4 -86 0 -150 -3 -140 -6 10 -4 -1 -8 -28 -13 -30 -5
-60 -19 -90 -45 -25 -20 -54 -40 -65 -44 -19 -6 -19 -6 -1 6 71 46 91 72 110
147 10 39 10 58 -1 101 -7 29 -19 59 -25 66 -34 42 -114 56 -183 33 -35 -12
-46 -34 -22 -43 7 -3 5 -6 -6 -6 -23 -1 -33 25 -16 45 21 26 71 42 130 43 54
1 58 -1 106 -48z m164 -268 c1 -17 2 -17 6 0 2 9 9 17 14 17 5 0 9 -87 10
-207 1 -115 4 -219 8 -233 6 -20 18 -27 76 -43 39 -10 111 -24 160 -32 l90
-14 -81 4 c-45 3 -116 14 -159 26 -42 11 -79 18 -82 15 -7 -6 29 -16 147 -43
58 -12 85 -21 60 -19 -101 9 -217 27 -243 38 l-28 11 2 248 c2 137 6 249 11
249 4 0 9 -8 9 -17z m731 -110 l2 -118 6 120 c3 66 8 111 11 99 7 -24 9 -441
2 -466 -6 -25 -23 -22 -23 4 0 19 -1 20 -12 6 -12 -15 -124 -45 -134 -35 -2 2
23 10 56 17 33 7 62 16 65 20 2 3 5 111 7 238 3 241 17 320 20 115z m-527 72
c31 -30 33 -65 5 -65 -12 0 -17 5 -14 13 8 21 -19 48 -36 37 -12 -7 -16 -36
-18 -127 -2 -65 1 -138 5 -163 11 -60 34 -60 49 -1 15 65 39 69 29 5 -11 -79
-51 -107 -91 -63 -17 19 -19 37 -18 185 1 143 3 166 19 184 24 26 41 25 70 -5z
m445 10 c0 -11 -11 -15 -37 -15 -59 0 -65 -8 -61 -86 l3 -69 43 -3 c53 -4 52
-26 -1 -30 l-37 -3 0 -75 0 -75 45 2 c24 2 48 0 52 -4 15 -16 -17 -28 -63 -25
l-49 3 -6 50 c-3 28 -9 114 -13 192 l-7 142 38 4 c82 8 93 7 93 -8z m-308 -88
c45 -209 59 -289 54 -295 -12 -11 -23 13 -36 75 -13 67 -14 67 -77 48 -6 -2
-14 -28 -18 -58 -4 -30 -11 -60 -15 -68 -20 -32 -21 7 -1 118 11 65 26 147 32
183 11 64 26 96 38 84 3 -3 14 -42 23 -87z m48 41 c6 -29 20 -96 30 -148 10
-52 19 -92 19 -88 1 3 10 66 21 140 11 73 20 136 20 141 0 4 7 7 15 7 18 0 18
2 1 -101 -8 -46 -19 -123 -26 -170 -21 -152 -37 -147 -69 21 -12 63 -26 134
-31 157 -6 23 -10 53 -10 67 0 45 18 28 30 -26z"/>
</g>
</svg>
